# xmcd CD database file
#
# Track frame offsets:
#	150
#	30058
#	60200
#	81366
#	109993
#	144982
#	182654
#	204365
#	236669
#	249074
#	279274
#
# Disc length: 3900 seconds
#
# Revision: 1
# Processed by: cddbd v1.4PL0 Copyright (c) Steve Scherf et al.
# Submitted via: CDex 1.50beta10
#
DISCID=800f3a0b
DTITLE=Kahil El' Zabar Tri-Factor - The Power
DYEAR=1900
DGENRE=Jazz
TTITLE0=Space of no pain
TTITLE1=Katon
TTITLE2=Silent observations
TTITLE3=At play un the fields of lord
TTITLE4=Contrary Motion
TTITLE5=The power
TTITLE6=Moment's resolution
TTITLE7=A little sumpin' sumpin'
TTITLE8=Alternate Tuning
TTITLE9=Space of no pain Take 3
TTITLE10=Vocal improv
EXTD=
EXTT0=
EXTT1=
EXTT2=
EXTT3=
EXTT4=
EXTT5=
EXTT6=
EXTT7=
EXTT8=
EXTT9=
EXTT10=
PLAYORDER=
